<?xml version="1.0" standalone="no"?>
<!DOCTYPE svg PUBLIC "-//W3C//DTD SVG 20010904//EN"
 "http://www.w3.org/TR/2001/REC-SVG-20010904/DTD/svg10.dtd">
<svg version="1.0" xmlns="http://www.w3.org/2000/svg"
 width="256.000000pt" height="256.000000pt" viewBox="0 0 256.000000 256.000000"
 preserveAspectRatio="xMidYMid meet">

<g transform="translate(0.000000,256.000000) scale(0.100000,-0.100000)"
fill="#000000" stroke="none">
<path d="M0 1280 l0 -1280 1280 0 1280 0 0 1280 0 1280 -1280 0 -1280 0 0
-1280z m1596 554 c38 -18 75 -51 152 -139 92 -105 102 -120 102 -155 0 -26 -7
-47 -22 -63 -17 -18 -307 -276 -481 -427 -5 -4 7 -24 26 -44 34 -35 36 -36
110 -36 42 0 86 4 99 9 13 5 90 68 171 141 l148 132 57 -63 c31 -34 57 -66 57
-69 0 -4 -70 -69 -155 -145 -196 -173 -219 -185 -373 -185 -90 0 -120 4 -152
20 -51 24 -53 26 -154 138 l-85 94 -19 -52 c-16 -43 -36 -67 -128 -148 -166
-147 -150 -142 -411 -142 l-218 0 0 80 0 80 180 0 c133 0 189 4 213 14 18 8
70 47 117 88 l85 74 3 142 c1 87 -2 150 -8 162 -6 11 -51 54 -101 95 l-90 75
-199 0 -200 0 0 85 0 85 213 0 c245 0 257 -4 359 -92 47 -41 62 -49 69 -37 5
8 9 16 9 19 0 16 219 219 278 258 73 48 253 51 348 6z m581 -427 c35 -35 63
-72 63 -82 0 -24 -121 -145 -145 -145 -24 0 -145 121 -145 145 0 24 121 145
145 145 10 0 47 -28 82 -63z m-572 -684 l0 -28 -107 -3 -108 -3 0 31 0 30 108
0 108 0 -1 -27z"/>
<path d="M1362 1677 c-33 -12 -216 -167 -232 -196 -17 -33 -31 -138 -21 -164
5 -13 34 -50 63 -81 l53 -56 171 153 c94 83 187 167 208 185 l37 32 -48 56
c-26 31 -60 62 -75 70 -32 17 -111 17 -156 1z"/>
</g>
</svg>
